HIERARCHY
ROOT Hips
{
	OFFSET -3.958830 18.904000 13.208200
	CHANNELS 6 Xposition Yposition Zposition Zrotation Yrotation Xrotation 
	JOINT LHipJoint
	{
		OFFSET 0.000000 0.000000 0.000000
		CHANNELS 3 Zrotation Yrotation Xrotation
		JOINT LeftUpLeg
		{
			OFFSET 1.800000 -1.400000 0.085000
			CHANNELS 3 Zrotation Yrotation Xrotation
			JOINT LeftLeg
			{
				OFFSET 2.215000 -6.000000 0.000000
				CHANNELS 3 Zrotation Yrotation Xrotation
				JOINT LeftFoot
				{
					OFFSET 2.500000 -6.900000 0.000000
					CHANNELS 3 Zrotation Yrotation Xrotation
					JOINT LeftToeBase
					{
						OFFSET 0.200000 -0.500000 1.950000
						CHANNELS 3 Zrotation Yrotation Xrotation
						End Site
						{
							OFFSET 0.000000 0.000000 0.000000
						}
					}
				}
			}
		}
	}
	JOINT RHipJoint
	{
		OFFSET 0.000000 0.000000 0.000000
		CHANNELS 3 Zrotation Yrotation Xrotation
		JOINT RightUpLeg
		{
			OFFSET -1.800000 -1.400000 0.085000
			CHANNELS 3 Zrotation Yrotation Xrotation
			JOINT RightLeg
			{
				OFFSET -2.215000 -6.000000 0.000000
				CHANNELS 3 Zrotation Yrotation Xrotation
				JOINT RightFoot
				{
					OFFSET -2.500000 -6.900000 0.000000
					CHANNELS 3 Zrotation Yrotation Xrotation
					JOINT RightToeBase
					{
						OFFSET -0.200000 -0.500000 1.950000
						CHANNELS 3 Zrotation Yrotation Xrotation
						End Site
						{
							OFFSET 0.000000 0.000000 0.000000
						}
					}
				}
			}
		}
	}
	JOINT LowerBack
	{
		OFFSET 0.000000 0.000000 0.000000
		CHANNELS 3 Zrotation Yrotation Xrotation
		JOINT Spine
		{
			OFFSET -0.087000 1.940000 -0.288900
			CHANNELS 3 Zrotation Yrotation Xrotation
			JOINT Spine1
			{
				OFFSET 0.000000 1.950000 0.060000
				CHANNELS 3 Zrotation Yrotation Xrotation
				JOINT Neck
				{
					OFFSET 0.000000 0.000000 0.000000
					CHANNELS 3 Zrotation Yrotation Xrotation
					JOINT Neck1
					{
						OFFSET 0.000000 1.600000 0.340000
						CHANNELS 3 Zrotation Yrotation Xrotation
						JOINT Head
						{
							OFFSET 0.000000 1.667000 -0.240000
							CHANNELS 3 Zrotation Yrotation Xrotation
							End Site
							{
								OFFSET 0.000000 0.000000 0.000000
							}
						}
					}
				}
				JOINT LeftShoulder
				{
					OFFSET 0.000000 0.000000 0.000000
					CHANNELS 3 Zrotation Yrotation Xrotation
					JOINT LeftArm
					{
						OFFSET 2.700000 1.550000 -0.730000
						CHANNELS 3 Zrotation Yrotation Xrotation
						JOINT LeftForeArm
						{
							OFFSET 5.450000 0.000000 0.000000
							CHANNELS 3 Zrotation Yrotation Xrotation
							JOINT LeftHand
							{
								OFFSET 3.450000 0.000000 0.000000
								CHANNELS 3 Zrotation Yrotation Xrotation
								JOINT LeftHandIndex1
								{
									OFFSET 0.750000 0.000000 0.000000
									CHANNELS 3 Zrotation Yrotation Xrotation
									End Site
									{
										OFFSET 0.000000 0.000000 0.000000
									}
								}
							}
						}
					}
				}
				JOINT RightShoulder
				{
					OFFSET 0.000000 0.000000 0.000000
					CHANNELS 3 Zrotation Yrotation Xrotation
					JOINT RightArm
					{
						OFFSET -2.700000 1.550000 -0.730000
						CHANNELS 3 Zrotation Yrotation Xrotation
						JOINT RightForeArm
						{
							OFFSET -5.450000 0.000000 0.000000
							CHANNELS 3 Zrotation Yrotation Xrotation
							JOINT RightHand
							{
								OFFSET -3.450000 0.000000 0.000000
								CHANNELS 3 Zrotation Yrotation Xrotation
								JOINT RightHandIndex1
								{
									OFFSET -0.750000 0.000000 0.000000
									CHANNELS 3 Zrotation Yrotation Xrotation
									End Site
									{
										OFFSET 0.000000 0.000000 0.000000
									}
								}
							}
						}
					}
				}
			}
		}
	}
}
MOTION
Frames: 7
Frame Time: 0.016667
0.174660 16.326800 -1.478350 -3.297622 -0.792819 -8.674526 -14.895157 13.419761 2.618349 19.484359 -1.027838 -7.165690 -11.365306 11.125991 23.780606 -0.616205 7.695065 2.175077 0.385160 -0.316860 0.229200 18.516490 -11.186566 2.099350 -14.208374 0.975603 -22.267666 3.588450 -11.627675 43.795734 -0.660025 -7.287951 2.184229 0.146640 0.726150 0.252620 -4.326220 -1.551240 -6.874403 17.191682 -4.547101 9.067569 -6.837973 -3.548621 11.783027 1.892597 -2.643414 -6.340797 -6.828099 2.641704 32.626378 -3.791730 2.492880 -4.105700 -19.599562 2.521740 0.848917 -41.051293 -3.833619 4.396979 -149.011596 -55.279206 113.416914 -4.121697 3.367224 0.701570 0.511270 -0.441220 0.376620 15.527618 -3.955816 4.259463 44.997319 -10.213782 -9.871213 92.189116 66.511316 51.120234 1.762120 -1.475490 -0.634430 0.542040 0.198820 -0.470980 
0.242660 16.395360 -1.514810 -3.252426 -0.355143 -8.253178 -14.924453 13.348203 2.428065 18.629804 -1.087866 -7.343323 -10.132169 10.335186 23.037807 -0.713330 7.310620 2.292974 0.493160 -0.182080 0.298520 18.538413 -10.867340 2.490116 -15.657260 1.633683 -26.669129 5.183581 -13.705160 48.420849 -0.903459 -8.226843 1.829389 0.224050 0.669240 0.259710 -4.321152 -1.739027 -6.997210 17.053582 -5.318151 9.708008 -6.409358 -4.247928 12.305137 1.673634 -2.898073 -6.427718 -7.122559 3.154080 31.864346 -3.702860 2.601780 -6.264310 -19.005074 1.977902 0.993705 -38.798441 -2.973523 3.394630 -146.614783 -54.171421 107.679820 -4.081994 3.427922 0.722230 0.473180 -0.387580 0.400930 15.484303 -3.263500 4.124319 42.463951 -10.159199 -9.799627 99.510835 63.639671 54.915244 1.678901 -1.596722 -0.603610 0.543920 0.140740 -0.473570 
0.312080 16.447550 -1.550240 -3.611411 -0.046103 -7.870981 -14.930921 13.227161 2.248539 18.216966 -1.184630 -7.436079 -8.972175 9.632966 22.305950 -0.843137 7.016938 2.373251 0.548960 -0.131290 0.370950 18.584933 -10.548190 2.924695 -16.954792 2.164135 -30.722639 6.840177 -15.963483 52.390755 -1.145749 -9.139914 1.511474 0.261840 0.616480 0.272130 -4.379635 -1.826108 -7.162446 17.683489 -6.225227 10.582736 -6.734251 -4.986068 12.526390 1.890854 -2.756918 -6.581203 -6.680564 3.530866 31.493608 -4.648420 3.294100 -8.490670 -19.111031 0.892355 1.185091 -35.582775 -1.648102 2.109458 -143.925746 -53.200035 101.578031 -4.081692 3.425892 0.782340 0.449470 -0.340600 0.386390 15.274009 -2.521850 4.134017 40.191033 -9.924762 -9.445847 101.390556 60.894929 54.211712 1.569342 -1.723849 -0.609120 0.552250 0.127510 -0.513940 
0.376280 16.480520 -1.591150 -4.154843 0.339371 -7.636394 -14.939450 13.095074 2.070775 18.211046 -1.309779 -7.896948 -7.762460 9.169821 22.443729 -0.927325 6.811980 2.407344 0.614130 -0.061050 0.444370 18.634471 -10.190997 3.394963 -18.171922 2.694061 -34.553873 8.734352 -18.530098 56.230248 -1.423584 -10.092074 1.200369 0.298710 0.545370 0.276140 -4.437999 -1.943098 -7.354704 18.376912 -7.167820 11.768720 -6.861651 -5.699349 12.766615 1.987318 -2.758126 -6.854083 -6.541765 4.207474 31.333701 -4.970910 3.949610 -10.895670 -19.513699 -0.539025 1.605462 -32.452867 -0.230455 0.704145 -142.312520 -52.876251 97.778568 -4.051636 3.417745 0.835640 0.403740 -0.282020 0.373340 15.597332 -1.299469 4.198050 37.507170 -9.626236 -9.304480 104.212433 59.451869 55.275900 1.537304 -1.754030 -0.596020 0.551000 0.101190 -0.543560 
0.444720 16.490020 -1.633420 -4.841843 0.819341 -7.402165 -14.939461 12.901583 1.869854 18.345158 -1.469839 -8.508198 -6.589407 8.848338 23.172028 -1.000237 6.672574 2.414338 0.714490 0.040900 0.556520 18.705923 -9.794684 3.936750 -19.968831 3.047130 -38.539712 11.421253 -21.860906 59.787949 -1.760970 -11.154293 0.862596 0.352030 0.445980 0.285460 -4.537026 -1.986241 -7.563485 19.601850 -8.194097 13.037905 -7.198886 -6.418490 12.905378 2.155784 -2.776141 -7.008079 -6.384850 4.472438 30.899762 -5.857090 4.356810 -13.729880 -20.577124 -2.103291 1.991238 -28.964234 1.304412 -0.543305 -140.852525 -52.413554 94.196190 -3.991037 3.426041 0.898380 0.340870 -0.202470 0.368300 16.431830 0.012578 4.240572 34.347548 -9.474523 -9.231662 108.529903 58.679576 58.360580 1.529677 -1.764561 -0.573320 0.538750 0.045360 -0.578310 
0.514420 16.480970 -1.681830 -5.418495 0.949090 -7.316658 -14.945030 12.708293 1.704801 18.535011 -1.569083 -9.067811 -5.847607 8.803672 24.312807 -1.011585 6.637549 2.386149 0.790470 0.125610 0.631480 18.769751 -9.375237 4.503162 -22.081883 3.376648 -42.389498 14.313587 -25.403917 62.939358 -2.099048 -12.177517 0.577567 0.378650 0.354850 0.290860 -4.609721 -2.058749 -7.817472 20.821000 -9.116267 15.106564 -7.471465 -6.889016 12.460406 2.320763 -3.022900 -7.251367 -6.650786 4.687652 30.409984 -6.302210 4.401270 -16.533200 -21.551892 -3.420536 2.410976 -26.425145 2.771725 -1.601311 -139.382758 -52.237481 91.126559 -3.920154 3.432047 0.950450 0.273330 -0.127100 0.365810 17.129161 1.400540 4.351314 31.322255 -9.321442 -9.241404 112.487997 58.482603 62.022960 1.544316 -1.739061 -0.536930 0.522130 -0.001120 -0.594140 
0.591270 16.456400 -1.738660 -5.977193 1.006719 -7.560255 -14.945107 12.559736 1.539291 18.497059 -1.584191 -9.205197 -4.965901 8.684840 25.354947 -1.034034 6.614582 2.362637 0.827690 0.154870 0.682330 18.830218 -9.006500 5.036532 -24.284592 3.596392 -45.950719 16.675830 -28.695850 65.894194 -2.406766 -13.070985 0.349094 0.376380 0.276740 0.293460 -4.680424 -2.124993 -8.049709 22.403695 -10.290544 17.945374 -8.193369 -7.369194 11.648623 2.532740 -3.559402 -7.574163 -7.442718 5.045644 29.927193 -6.601120 4.174660 -19.955240 -22.379764 -4.682255 2.826899 -23.917606 4.317409 -2.555435 -136.779499 -51.675742 86.032703 -3.853258 3.416178 1.029970 0.199420 -0.057360 0.348040 17.545669 2.939495 4.593505 28.800215 -9.031506 -9.369235 116.146641 58.222630 65.597013 1.553859 -1.677719 -0.522460 0.522990 -0.012130 -0.617220 
